<svg width="24" height="16" viewBox="0 0 24 13" fill="none" xmlns="http://www.w3.org/2000/svg">
<path d="M1.05366 2.17468H22.9346C23.52 2.17468 24 1.68207 24 1.08133C24 0.480592 23.52 0 22.9346 0H1.05366C0.468293 0 0 0.480592 0 1.08133C0 1.67006 0.468293 2.17468 1.05366 2.17468ZM1.05366 7.58133H22.9346C23.52 7.58133 24 7.08872 24 6.5C24 5.88725 23.52 5.39464 22.9346 5.39464H1.05366C0.468293 5.39464 0 5.88725 0 6.5C0 7.08872 0.468293 7.58133 1.05366 7.58133ZM1.05366 13H22.9346C23.52 13 24 12.5074 24 11.8946C24 11.2939 23.52 10.8133 22.9346 10.8133H1.05366C0.468293 10.8133 0 11.3059 0 11.8946C0 12.4954 0.468293 13 1.05366 13Z" fill="#979797"/>
</svg>
